PathFileType	4	(X/Y/Z)	c:/Users/goper/Files/vsCode/490R/osim_files/A03/A03_Static02.trc
DataRate	CameraRate	NumFrames	NumMarkers	Units                	OrigDataRate	OrigDataStartFrame	OrigNumFrames
250.00	250.00	4	36	mm	250.0	1671	2227
                Frame#	Time	LPSIS			LASIS			LTH1			LTH2			LTH3			LTH4			LLFE			LMFE			LSH1			LSH2			LSH3			LSH4			LLMAL			LMMAL			LCAL			LMTP5			LTOE			LMTP1			RPSIS			RASIS			RTH1			RTH2			RTH3			RTH4			RLFE			RMFE			RSH1			RSH2			RSH3			RSH4			RLMAL			RMMAL			RCAL			RMTP1			RTOE			RMTP5		
		X1	Y1	Z1	X2	Y2	Z2	X3	Y3	Z3	X4	Y4	Z4	X5	Y5	Z5	X6	Y6	Z6	X7	Y7	Z7	X8	Y8	Z8	X9	Y9	Z9	X10	Y10	Z10	X11	Y11	Z11	X12	Y12	Z12	X13	Y13	Z13	X14	Y14	Z14	X15	Y15	Z15	X16	Y16	Z16	X17	Y17	Z17	X18	Y18	Z18	X19	Y19	Z19	X20	Y20	Z20	X21	Y21	Z21	X22	Y22	Z22	X23	Y23	Z23	X24	Y24	Z24	X25	Y25	Z25	X26	Y26	Z26	X27	Y27	Z27	X28	Y28	Z28	X29	Y29	Z29	X30	Y30	Z30	X31	Y31	Z31	X32	Y32	Z32	X33	Y33	Z33	X34	Y34	Z34	X35	Y35	Z35	X36	Y36	Z36

1671	6.68000	-405.27750	1046.87048	429.19336	-165.78951	981.02417	304.46613	-191.06169	646.74396	206.36090	-174.51109	605.51520	198.80579	-129.54688	660.25757	212.55310	-124.32552	617.47980	205.32526	-170.76399	555.61469	199.72722	-122.59935	534.90747	347.92847	-228.19945	476.24167	207.20535	-234.42398	428.04269	207.15440	-167.84601	460.68146	198.82338	-184.20372	415.76093	204.61665	-286.85754	104.83083	229.84871	-255.41364	106.20250	320.41916	-345.39880	88.60867	296.98819	-148.11282	40.51252	181.94789	-101.81772	67.98016	242.39755	-121.88855	48.15033	293.24365	-407.07471	1053.26648	510.42047	-160.63448	982.04175	609.27655	-218.69600	628.06824	691.83948	-208.56152	584.52795	688.77362	-157.55890	635.98193	696.62762	-154.93515	591.64197	692.83228	-184.37981	542.82983	681.43225	-127.81197	541.30682	569.83008	-240.37984	481.20706	678.72748	-250.35796	442.21289	692.25842	-182.23149	465.66071	692.85864	-201.28592	424.05994	704.14307	-286.13708	128.27434	664.34631	-244.29236	129.60410	588.87463	0.00000	0.00000	0.00000	-122.03572	47.47267	595.76160	-99.80908	70.29722	648.38116	-142.41122	42.18117	713.08936
1672	6.68400	-405.29987	1046.86865	429.09436	-165.99109	980.96185	304.42206	-190.97639	646.67389	206.26129	-174.48830	605.50800	198.70959	-129.53711	660.23572	212.47043	-124.31508	617.49091	205.22777	-170.75145	555.58704	199.63914	-122.57509	534.88843	347.83426	-228.16248	476.22009	207.12770	-234.38493	428.01175	207.06839	-167.81912	460.65506	198.73767	-184.15106	415.75705	204.56699	-286.86511	104.80844	229.84802	-255.44669	106.19253	320.38437	-345.39825	88.58256	296.99432	-148.10835	40.49703	181.93330	-101.80784	67.97449	242.36179	-121.91042	48.12408	293.23575	-407.04446	1053.28821	510.30746	-160.64578	982.04510	609.19818	-218.75253	628.09265	691.81635	-208.57283	584.54358	688.76721	-157.55878	636.01837	696.57690	-154.95523	591.66364	692.80084	-184.39705	542.84491	681.40771	-127.90170	541.28918	569.76190	-240.40935	481.22427	678.72168	-250.36369	442.20209	692.24908	-182.26553	465.66888	692.86365	-201.34357	424.06171	704.11505	-286.13104	128.26086	664.39404	-244.30452	129.62048	588.89819	0.00000	0.00000	0.00000	-122.03152	47.46501	595.76874	-99.82227	70.29168	648.36737	-142.40706	42.17955	713.07684
1673	6.68800	-405.31686	1046.85571	429.00089	-165.99281	980.90619	304.35461	-191.01451	646.70801	206.17662	-174.48674	605.47327	198.62723	-129.50627	660.22406	212.35321	-124.29594	617.46600	205.11247	-170.69633	555.54065	199.53761	-122.52692	534.90991	347.71463	-228.12901	476.21146	207.03873	-234.36299	427.98843	206.99731	-167.78168	460.64236	198.66830	-184.13464	415.70950	204.47623	-286.84967	104.79871	229.83516	-255.42668	106.21587	320.39975	-345.40436	88.58941	296.97607	-148.09843	40.49211	181.93636	-102.24097	67.65052	242.53317	-121.88300	48.17821	293.20004	-407.05933	1053.32617	510.22485	-160.58696	982.09607	609.13782	-218.68922	628.12384	691.81000	-208.55698	584.56842	688.73907	-157.52861	636.02625	696.52209	-154.89758	591.71613	692.75635	-184.37981	542.85211	681.40881	-127.95002	541.30371	569.71545	-240.40677	481.25003	678.72363	-250.36584	442.22974	692.23901	-182.25151	465.71118	692.85480	-201.32375	424.07120	704.09662	-286.13284	128.30809	664.37610	-244.30658	129.61270	588.90985	0.00000	0.00000	0.00000	-122.01637	47.48876	595.72461	-99.79719	70.31297	648.35315	-142.40112	42.19755	713.05737
1674	6.69200	-405.27789	1046.85156	428.89432	-165.99327	980.84949	304.27628	-191.75690	646.21313	206.61722	-174.44301	605.44781	198.54529	-129.47910	660.21545	212.26331	-124.24485	617.45068	205.01425	-170.66579	555.50104	199.45486	-122.40454	534.92120	347.60889	-228.08511	476.18015	206.95357	-234.33943	427.99118	206.92694	-167.74467	460.61343	198.58693	-184.10612	415.67395	204.42209	-286.84433	104.78503	229.81856	-255.37384	106.22748	320.37387	-345.41040	88.57729	296.96649	-148.12575	40.49195	181.93326	-101.80065	67.99220	242.37138	-121.82291	48.20814	293.15741	-407.03134	1053.32446	510.12149	-160.50648	982.17200	609.00745	-218.64439	628.15485	691.76434	-208.50948	584.60358	688.70764	-157.47342	636.08417	696.45782	-154.85622	591.74890	692.70520	-184.34964	542.90570	681.34888	-128.03758	541.28754	569.68079	-240.41513	481.27100	678.70184	-250.38379	442.26331	692.21002	-182.22356	465.75739	692.82007	-201.27678	424.13629	704.07721	-286.10138	128.32283	664.36304	-244.32570	129.60951	588.92145	0.00000	0.00000	0.00000	-121.97511	47.49478	595.71307	-99.75654	70.31490	648.33051	-142.35768	42.20795	713.05957
